# xmcd CD database file generated by Grip 2.96
# 
# Track frame offsets:
#       150
#       13952
#       22885
#       26005
#       28162
#       32935
#       36002
#       48655
#       53005
#       57410
#       68982
#       78240
#       83042
#       95305
#       102780
#       114675
#       134122
#       139082
#       148727
#       166972
#       175722
#       179942
#       183030
# 
# Disc length: 2689 seconds
# 
# Revision: 0
# Processed by: cddbd v1.4PL0 Copyright (c) Steve Scherf et al.
# Submitted via: Grip 2.96
# 
DISCID=440a7f17
DTITLE=Tim Wilson - I Should've Married My Father-in-Law
DYEAR=1900
DGENRE=
TTITLE0=In God and Allen Greenspan We Trust
TTITLE1=Father-in-Law
TTITLE2=More Al Gore
TTITLE3=The Clinton Eviction
TTITLE4=Gov't Food
TTITLE5=Chicken Fishin'
TTITLE6=High Maintenance Woman
TTITLE7=Paul Hornung
TTITLE8=Strom Thurmond
TTITLE9=The Clone Song
TTITLE10=Pickin' On the Mormons
TTITLE11=What Women Want
TTITLE12=Smack Dab in Paradise
TTITLE13=Dale Jarrett's Car
TTITLE14=Too Stoned for Sturgis
TTITLE15=21 and Don't Know Nothing
TTITLE16=Merle Haggard Ain't Romantic
TTITLE17=Hollywood
TTITLE18=Stairwell to Heaven
TTITLE19=What's Wrong with Schools
TTITLE20=Rosie O'Donnell
TTITLE21=2nd Amendment
TTITLE22=Grady Bill (Gunfighter Without a Gun)
EXTD=
EXTT0=
EXTT1=
EXTT2=
EXTT3=
EXTT4=
EXTT5=
EXTT6=
EXTT7=
EXTT8=
EXTT9=
EXTT10=
EXTT11=
EXTT12=
EXTT13=
EXTT14=
EXTT15=
EXTT16=
EXTT17=
EXTT18=
EXTT19=
EXTT20=
EXTT21=
EXTT22=
PLAYORDER=
